<svg width="25" height="25" viewBox="0 0 25 25" fill="none" xmlns="http://www.w3.org/2000/svg">
<g clip-path="url(#clip0_54_129)">
<path d="M7.04 5.61017C7.1 6.50017 7.25 7.37017 7.49 8.20017L6.29 9.40017C5.88 8.20017 5.62 6.93017 5.53 5.61017H7.04ZM16.9 17.6302C17.75 17.8702 18.62 18.0202 19.5 18.0802V19.5702C18.18 19.4802 16.91 19.2202 15.7 18.8202L16.9 17.6302ZM8 3.61017H4.5C3.95 3.61017 3.5 4.06017 3.5 4.61017C3.5 14.0002 11.11 21.6102 20.5 21.6102C21.05 21.6102 21.5 21.1602 21.5 20.6102V17.1202C21.5 16.5702 21.05 16.1202 20.5 16.1202C19.26 16.1202 18.05 15.9202 16.93 15.5502C16.83 15.5102 16.72 15.5002 16.62 15.5002C16.36 15.5002 16.11 15.6002 15.91 15.7902L13.71 17.9902C10.88 16.5402 8.56 14.2302 7.12 11.4002L9.32 9.20017C9.6 8.92017 9.68 8.53017 9.57 8.18017C9.2 7.06017 9 5.86017 9 4.61017C9 4.06017 8.55 3.61017 8 3.61017Z" fill="#F3F3F3"/>
</g>
<defs>
<clipPath id="clip0_54_129">
<rect width="24" height="24" fill="white" transform="translate(0.5 0.610168)"/>
</clipPath>
</defs>
</svg>
