<svg width="20" height="21" viewBox="0 0 20 21" fill="none" xmlns="http://www.w3.org/2000/svg">
<path d="M0 20.5L1.40583 15.3642C0.538333 13.8608 0.0825 12.1567 0.0833333 10.4092C0.0858333 4.94583 4.53167 0.5 9.99417 0.5C12.645 0.500833 15.1333 1.53333 17.005 3.40667C18.8758 5.28 19.9058 7.77 19.905 10.4183C19.9025 15.8825 15.4567 20.3283 9.99417 20.3283C8.33583 20.3275 6.70167 19.9117 5.25417 19.1217L0 20.5ZM5.4975 17.3275C6.89417 18.1567 8.2275 18.6533 9.99083 18.6542C14.5308 18.6542 18.2292 14.9592 18.2317 10.4167C18.2333 5.865 14.5525 2.175 9.9975 2.17333C5.45417 2.17333 1.75833 5.86833 1.75667 10.41C1.75583 12.2642 2.29917 13.6525 3.21167 15.105L2.37917 18.145L5.4975 17.3275ZM14.9867 12.7742C14.925 12.6708 14.76 12.6092 14.5117 12.485C14.2642 12.3608 13.0467 11.7617 12.8192 11.6792C12.5925 11.5967 12.4275 11.555 12.2617 11.8033C12.0967 12.0508 11.6217 12.6092 11.4775 12.7742C11.3333 12.9392 11.1883 12.96 10.9408 12.8358C10.6933 12.7117 9.895 12.4508 8.94917 11.6067C8.21333 10.95 7.71583 10.1392 7.57167 9.89083C7.4275 9.64333 7.55667 9.50917 7.68 9.38583C7.79167 9.275 7.9275 9.09667 8.05167 8.95167C8.1775 8.80833 8.21833 8.705 8.30167 8.53917C8.38417 8.37417 8.34333 8.22917 8.28083 8.105C8.21833 7.98167 7.72333 6.7625 7.5175 6.26667C7.31583 5.78417 7.11167 5.84917 6.96 5.84167L6.485 5.83333C6.32 5.83333 6.05167 5.895 5.825 6.14333C5.59833 6.39167 4.95833 6.99 4.95833 8.20917C4.95833 9.42833 5.84583 10.6058 5.96917 10.7708C6.09333 10.9358 7.715 13.4375 10.1992 14.51C10.79 14.765 11.2517 14.9175 11.6108 15.0317C12.2042 15.22 12.7442 15.1933 13.1708 15.13C13.6467 15.0592 14.6358 14.5308 14.8425 13.9525C15.0492 13.3733 15.0492 12.8775 14.9867 12.7742Z" fill="white"/>
</svg>
